<svg width="45" height="45" viewBox="0 0 45 45" fill="none" xmlns="http://www.w3.org/2000/svg">
<path opacity="0.5" d="M18.7497 37.5H26.2497C33.3203 37.5 36.8566 37.5 39.0522 35.3025C41.2478 33.105 41.2497 29.5706 41.2497 22.5C41.2497 21.6713 41.246 19.485 41.2422 18.75H3.74971C3.74596 19.485 3.74971 21.6713 3.74971 22.5C3.74971 29.5706 3.74971 33.1069 5.94534 35.3025C8.14096 37.4981 11.681 37.5 18.7497 37.5Z" fill="#F06F1E"/>
<path d="M18.7406 7.5H26.2594C33.3487 7.5 36.8944 7.5 39.0956 9.5925C40.6819 11.0981 41.1263 13.2675 41.25 16.875V18.75H3.75V16.875C3.87375 13.2656 4.31812 11.1 5.90437 9.5925C8.10563 7.5 11.6512 7.5 18.7406 7.5ZM23.4375 28.5938C23.0645 28.5938 22.7069 28.7419 22.4431 29.0056C22.1794 29.2694 22.0312 29.627 22.0312 30C22.0312 30.373 22.1794 30.7306 22.4431 30.9944C22.7069 31.2581 23.0645 31.4062 23.4375 31.4062H26.25C26.623 31.4062 26.9806 31.2581 27.2444 30.9944C27.5081 30.7306 27.6562 30.373 27.6562 30C27.6562 29.627 27.5081 29.2694 27.2444 29.0056C26.9806 28.7419 26.623 28.5938 26.25 28.5938H23.4375ZM11.25 28.5938C10.877 28.5938 10.5194 28.7419 10.2556 29.0056C9.99191 29.2694 9.84375 29.627 9.84375 30C9.84375 30.373 9.99191 30.7306 10.2556 30.9944C10.5194 31.2581 10.877 31.4062 11.25 31.4062H18.75C19.123 31.4062 19.4806 31.2581 19.7444 30.9944C20.0081 30.7306 20.1562 30.373 20.1562 30C20.1562 29.627 20.0081 29.2694 19.7444 29.0056C19.4806 28.7419 19.123 28.5938 18.75 28.5938H11.25Z" fill="#F06F1E"/>
</svg>
