<svg width="113" height="35" viewBox="0 0 113 35" fill="none" xmlns="http://www.w3.org/2000/svg">
<path d="M82.1811 26.3143V28.6465C82.269 28.7122 82.6532 28.7342 83.378 28.7342C85.7283 28.7342 86.4202 28.0962 87.1017 26.2261L91.5714 12.9598H89.5833C88.8584 12.9598 88.4083 13.3011 88.233 13.9721L86.2669 20.8363L84.0153 12.9711H80.7865L84.641 24.0483C85.0919 25.5441 84.5313 26.3253 82.9719 26.3253H82.1811V26.3143ZM74.9871 21.9584C76.5245 21.9584 77.3154 20.869 77.3811 18.6802C77.3811 16.3809 76.5685 15.2481 74.9431 15.2481C73.3172 15.2481 72.5492 16.3809 72.5711 18.6802C72.6588 20.869 73.4491 21.9584 74.9871 21.9584ZM72.5711 27.3153C72.5711 28.2613 72.0985 28.7342 71.1538 28.7342H69.7155V17.888C69.8692 14.4999 71.6154 12.8279 75.0201 12.8279C78.5344 12.8279 80.2809 14.731 80.2809 18.5483C80.2809 22.4091 78.7874 24.4003 75.7672 24.5102C74.3499 24.5102 73.2845 23.9271 72.5602 22.75V27.3153H72.5711ZM63.0923 21.9584C64.63 21.9584 65.4209 20.869 65.4868 18.6802C65.4868 16.3809 64.6743 15.2481 63.0484 15.2481C61.4233 15.2481 60.6541 16.3809 60.6761 18.6802C60.7533 20.869 61.5436 21.9584 63.0923 21.9584ZM60.6761 27.3153C60.6761 28.2613 60.2038 28.7342 59.2593 28.7342H57.8208V17.888C57.9744 14.4999 59.7207 12.8279 63.1256 12.8279C66.6399 12.8279 68.3864 14.731 68.3864 18.5483C68.3864 22.4091 66.8927 24.4003 63.8722 24.5102C62.4554 24.5102 61.3903 23.9271 60.6654 22.75V27.3153H60.6761ZM51.8128 15.1272C52.9881 15.1272 53.5923 15.4462 53.658 16.0949C53.658 16.7109 53.032 17.0852 51.8128 17.2283C48.9465 17.5031 46.9804 18.2403 46.9147 20.9574C46.9147 23.465 48.7926 24.73 51.5163 24.5102C54.5805 24.3014 56.4587 22.9042 56.4587 19.7691V15.9081C56.393 13.8069 54.8113 12.773 51.6812 12.773C49.0671 12.773 47.5954 13.8069 47.2549 15.9081H50.0998C50.2534 15.3802 50.8024 15.1272 51.8128 15.1272ZM51.1429 22.2002C50.2421 22.2002 49.7703 21.771 49.7043 20.869C49.7043 20.0331 50.2864 19.4941 51.4174 19.2852C52.2525 19.1094 53.0211 18.8783 53.691 18.6032V19.6482C53.691 21.2542 52.7355 22.2002 51.1429 22.2002ZM33.79 11.2879V24.3014H36.8099V17.8441H42.7849V24.3014H45.8051V9.72607H42.7849V15.1709H36.8099V9.72607H35.2835C34.4489 9.72607 33.79 10.452 33.79 11.2879Z" fill="#1E1D1A"/>
<path fill-rule="evenodd" clip-rule="evenodd" d="M111.627 9.72583H110.155V24.3011H113V11.1118C113 10.3638 112.374 9.72583 111.627 9.72583ZM103.708 15.1269C104.928 15.1269 105.631 15.8968 105.806 17.4039H101.545C101.764 15.8968 102.489 15.1269 103.708 15.1269ZM108.65 20.825H106.553C106.168 20.825 105.85 20.9572 105.586 21.2322C105.026 21.7713 104.411 22.0461 103.741 22.0461C102.346 22.0461 101.6 21.166 101.489 19.4281H108.805C109.013 14.9948 107.333 12.784 103.73 12.784C100.281 12.806 98.5464 14.731 98.5464 18.592C98.5464 22.453 100.259 24.4443 103.686 24.5542C106.498 24.5542 108.035 23.2229 108.65 20.825ZM97.8652 13.2349V12.9598H95.7455V11.156C95.7455 10.3638 95.0973 9.71484 94.307 9.71484H92.8899V22.1011C92.8679 23.3661 93.3845 24.0258 94.4496 24.1363C95.5149 24.2462 96.5256 24.2462 97.4481 24.158V21.9912H96.5693C96.009 21.9912 95.7345 21.7384 95.7345 21.2652V14.984H96.031C96.7779 14.984 97.4481 14.7417 97.7336 13.9831C97.8322 13.7962 97.8652 13.4879 97.8652 13.2349Z" fill="#F06F1E"/>
<path fill-rule="evenodd" clip-rule="evenodd" d="M6.60044 0.000384905C9.41233 0.000384905 14.0032 -0.0108679 16.7819 0.088314C19.0115 0.165252 18.6928 0.14327 19.868 1.66109C21.5704 3.88339 25.8647 8.73415 25.8318 10.1203C25.6892 17.0173 25.4254 20.5596 25.4034 27.6878C25.3927 31.3178 22.4379 34.2987 18.8027 34.2987H6.60044C2.97624 34.2987 0 31.3288 0 27.6878V6.61129C0 2.97008 2.97624 0.000384905 6.60044 0.000384905Z" fill="#F06F1E"/>
<path fill-rule="evenodd" clip-rule="evenodd" d="M8.23547 11.6938H17.2964C20.1629 11.6938 22.5135 14.048 22.5135 16.9191V25.6311C22.5135 28.5024 20.1629 30.8564 17.2964 30.8564H8.23547C5.36862 30.8564 3.01835 28.5024 3.01835 25.6311V16.9191C3.00736 14.048 5.35789 11.6938 8.23547 11.6938Z" fill="white"/>
<path fill-rule="evenodd" clip-rule="evenodd" d="M20.3509 21.1982C20.2193 25.2244 16.7704 28.4584 12.5312 28.4584C8.30254 28.4584 4.85394 25.2354 4.71106 21.1982H20.3509Z" fill="#F06F1E"/>
<path fill-rule="evenodd" clip-rule="evenodd" d="M10.8297 18.712C10.786 17.2599 9.53404 16.0938 8.00706 16.0938C6.4806 16.0938 5.2284 17.2599 5.18469 18.712H10.8297Z" fill="#F06F1E"/>
<path fill-rule="evenodd" clip-rule="evenodd" d="M20.2324 18.6204C20.1886 17.1683 18.9364 16.0024 17.4097 16.0024C15.8833 16.0024 14.6311 17.1683 14.5871 18.6204H20.2324Z" fill="#F06F1E"/>
<path fill-rule="evenodd" clip-rule="evenodd" d="M10.895 2.99219L6.63354 3.04714L9.14868 10.4065L10.895 2.99219Z" fill="white"/>
<path fill-rule="evenodd" clip-rule="evenodd" d="M4.87545 5.69824L2.26166 7.39218L7.61015 10.5715L4.87545 5.69824Z" fill="white"/>
<path fill-rule="evenodd" clip-rule="evenodd" d="M13.6087 5.42236L13.8503 5.55426L16.1788 6.86325L10.885 10.3064L13.4878 5.65344L13.6087 5.42236Z" fill="white"/>
</svg>
